<?xml version="1.0" encoding="UTF-8"?>
<!-- Generator: Adobe Illustrator 21.1.0, SVG Export Plug-In . SVG Version: 6.00 Build 0)  -->
<svg version="1.1" id="Layer_1" xmlns="http://www.w3.org/2000/svg" xmlns:xlink="http://www.w3.org/1999/xlink" x="0px" y="0px" viewBox="0 0 479 103.9" style="enable-background:new 0 0 479 103.9;" xml:space="preserve">
<style type="text/css">
	.st0{fill:#FFFFFF;}
	.st1{fill:#A7A9AC;}
	.st2{fill:#FFFFFF;stroke:#000000;stroke-width:7.1747;}
	.st3{fill:#ED1C24;}
	.st4{stroke:#000000;stroke-width:2.575;}
	.st5{fill:#E2231A;stroke:#E2231A;stroke-width:2.575;}
	.st6{fill-rule:evenodd;clip-rule:evenodd;fill:#E2231A;}
	.st7{fill-rule:evenodd;clip-rule:evenodd;}
	.st8{display:none;}
	.st9{display:inline;}
</style>
<g>
	<g>
		<path class="st0" d="M20.4,99.9c-6.2,0-11.3-2.4-14.2-6.5c-2.6-3.8-3-8.5-1.1-13.4l22.7-59c3.7-9.5,15.3-17,26.4-17h404.2    c6.2,0,11.4,2.4,14.2,6.5c2.6,3.8,3,8.5,1.1,13.4l-22.7,59c-3.7,9.5-15.3,17-26.4,17H20.4z"/>
		<path class="st1" d="M458.6,8c9.5,0,14.6,6.5,11.6,14.4l-22.7,59c-3.1,8-13.2,14.4-22.7,14.4H20.4c-9.5,0-14.6-6.5-11.6-14.4    l22.7-59C34.7,14.5,44.8,8,54.3,8H458.6 M458.6,0H54.3C41.6,0,28.4,8.6,24.1,19.6l-22.7,59c-2.3,6-1.8,12.3,1.6,17.1    c3.6,5.2,10,8.2,17.5,8.2h404.3c12.7,0,25.9-8.6,30.2-19.6l22.7-59c2.3-6,1.8-12.3-1.6-17.1C472.4,3,466.1,0,458.6,0L458.6,0z"/>
	</g>
	<path class="st2" d="M447.4,80.4c-3.1,8-13.2,14.4-22.7,14.4H20.4c-9.5,0-14.6-6.5-11.6-14.4l22.7-59C34.7,13.4,44.8,7,54.3,7   h404.2c9.5,0,14.6,6.5,11.6,14.4L447.4,80.4z"/>
	<g>
		<g>
			<polygon points="54.2,77.6 62.2,56.2 58.7,56.2 50.7,77.6 37.8,77.6 56.8,26.9 69.7,26.9 61.9,47.6 65.4,47.6 73.2,26.9      86.1,26.9 67.2,77.6    "/>
			<path class="st0" d="M84,28.3L66.1,76.1h-9.8l8-21.4h-6.7l-8,21.4h-9.8l17.9-47.8h9.8l-7.8,20.8h6.6l7.8-20.8H84 M88.3,25.4H84     h-9.8h-2l-0.7,1.9l-7.1,18.9h-0.3l6.3-16.8l1.5-4h-4.3h-9.8h-2L55,27.3L37.1,75.1l-1.5,4h4.3h9.8h2l0.7-1.9l7.3-19.5h0.3     l-6.5,17.5l-1.5,4h4.3h9.8h2l0.7-1.9l17.9-47.8L88.3,25.4L88.3,25.4z"/>
		</g>
		<g>
			<path d="M125.8,77.6c-3.7,0-6.1-0.9-7.4-2.7c-1.1-1.6-1.2-3.8-0.2-6.5L130.7,35c1-2.6,2.6-4.7,4.9-6.1c2.3-1.4,5-2.1,8-2.1H158     l1.4,8.4H144c-0.2,0-0.4,0-0.6,0.5l-12.5,33.4H147l-7.2,8.4H125.8z"/>
			<path class="st0" d="M156.8,28.3l0.9,5.4H144c-1,0-1.7,0.5-2,1.5l-12.7,33.9c-0.4,1,0,1.6,1.2,1.6h13.3l-4.7,5.4h-13.4     c-5.9,0-8-2.4-6.2-7.2l12.5-33.3c0.9-2.3,2.3-4.1,4.3-5.3c2-1.3,4.4-1.9,7.3-1.9H156.8 M159.3,25.4h-2.5h-13.1     c-3.4,0-6.3,0.8-8.8,2.3c-2.6,1.6-4.5,3.9-5.5,6.8l-12.5,33.3c-1.2,3.2-1.1,5.8,0.3,7.9c1.6,2.2,4.4,3.3,8.6,3.3h13.4h1.4l0.9-1     l4.7-5.4l4.2-4.9h-6.4H133l11.6-31h13.1h3.5l-0.6-3.4l-0.9-5.4L159.3,25.4L159.3,25.4z"/>
		</g>
		<g>
			<path d="M163.1,77.6l3.4-20l-7.5,20h-12.9l19-50.7H178l-7.1,19l10.9-19h13.3L183,47.6c-1.1,2-2.5,3.6-4.1,4.8     c0.6,1.3,0.8,2.9,0.5,4.9l-3.5,20.3H163.1z"/>
			<path class="st0" d="M192.6,28.3l-10.8,18.5c-1.3,2.3-2.9,4-4.8,5.2c1,1.2,1.4,2.8,1,5l-3.3,19.1h-9.8l3.2-18.8     c0.2-1.2-0.1-1.8-0.8-1.8h-1.5L158,76.1h-9.8l17.9-47.8h9.8L168.2,49h1.5c0.7,0,1.4-0.6,2.1-1.8l10.8-18.9H192.6 M197.7,25.4     h-5.1h-9.9H181l-0.9,1.5l-1.5,2.6l0-0.1l1.5-4h-4.3h-9.8h-2l-0.7,1.9l-17.9,47.8l-1.5,4h4.3h9.8h2l0.7-1.9l1.7-4.4l-0.5,2.9     l-0.6,3.4h3.5h9.8h2.5l0.4-2.4l3.3-19.1c0.3-1.8,0.2-3.3-0.2-4.7c1.4-1.2,2.6-2.8,3.6-4.6l10.8-18.5L197.7,25.4L197.7,25.4z"/>
		</g>
		<g>
			<path d="M190,77.6c-3.7,0-6.1-0.9-7.4-2.7c-1.1-1.6-1.2-3.8-0.2-6.5L194.9,35c1-2.6,2.6-4.7,4.9-6.1c2.3-1.4,5-2.1,8-2.1h14     l1.6,8.4h-15.3c-0.2,0-0.4,0-0.6,0.5l-4.5,12h11.6l-3.1,8.4h-11.6L195,69.2H211l-7,8.4H190z"/>
			<path class="st0" d="M220.7,28.3l1,5.4h-13.5c-1,0-1.7,0.5-2,1.5l-5.2,14h11.6l-2,5.4h-11.6l-5.4,14.5c-0.4,1,0,1.6,1.2,1.6h13.1     l-4.5,5.4H190c-5.9,0-8-2.4-6.2-7.2l12.5-33.3c0.9-2.3,2.3-4.1,4.3-5.3c2-1.3,4.4-1.9,7.3-1.9H220.7 M223.1,25.4h-2.4h-12.8     c-3.4,0-6.3,0.8-8.8,2.3c-2.6,1.6-4.5,3.9-5.5,6.8L181,67.9c-1.2,3.2-1.1,5.8,0.3,7.9c1.6,2.2,4.4,3.3,8.6,3.3h13.3h1.4l0.9-1.1     l4.5-5.4l4-4.8h-6.3h-10.6l3.8-10.1h9.6h2l0.7-1.9l2-5.4l1.5-4h-4.3h-7.4l3.6-9.6h12.9h3.6l-0.7-3.5l-1-5.4L223.1,25.4     L223.1,25.4z"/>
		</g>
		<g>
			<path d="M218.6,77.6l6.2-16.7c-2.3-0.4-3.9-1.3-4.9-2.7c-1.1-1.6-1.1-3.7-0.1-6.4l9.3-25H242l-9.7,25.8h2.8     c0.5,0,0.6-0.1,0.8-0.5l9.5-25.3h12.9l-9.7,26c-1.8,4.8-5.5,7.5-10.9,8.1l-6.2,16.7H218.6z"/>
			<path class="st0" d="M256.2,28.3l-9,24c-1.7,4.5-5.2,6.9-10.6,7.2l-6.2,16.6h-9.7l6.1-16.5c-5.5-0.2-7.4-2.6-5.7-7.2l9-24h9.8     l-9.1,24.3c-0.4,1,0,1.5,1.1,1.5h3.3c1.1,0,1.8-0.5,2.2-1.5l9.1-24.3H256.2 M260.5,25.4h-4.3h-9.8h-2l-0.7,1.9l-8.9,23.9l-0.2,0     l8.2-21.8l1.5-4h-4.3h-9.8h-2l-0.7,1.9l-9,24c-1.2,3.1-1.1,5.7,0.3,7.7c0.9,1.4,2.3,2.3,4.1,2.9l-4.9,13.2l-1.5,4h4.2h9.7h2     l0.7-1.9l5.6-14.9c6.9-1,9.9-5.3,11.3-8.9l9-24L260.5,25.4L260.5,25.4z"/>
		</g>
		<g>
			<path class="st3" d="M246.4,77.6l-1.4-8.4h16.3c0.2,0,0.4,0,0.6-0.5l4.2-11.1h-5c-3.7,0-6.1-0.9-7.4-2.7     c-1.1-1.6-1.2-3.8-0.2-6.6l4.9-13.2c1-2.6,2.6-4.7,4.9-6.1c2.3-1.4,5-2.1,8-2.1h15.2l1.4,8.4h-16.3c-0.2,0-0.4,0-0.6,0.5l-4,10.7     h5c3.3,0,5.6,0.9,7,2.6c1.4,1.8,1.5,4.2,0.4,7.2l-4.9,13.2c-1,2.6-2.6,4.7-4.9,6.1c-2.2,1.4-5,2.1-8,2.1H246.4z"/>
			<path class="st0" d="M285.4,28.3l0.9,5.4h-14.5c-1,0-1.7,0.5-2,1.5l-4.2,11.2c-0.4,1,0,1.5,1.2,1.5h5.3c2.8,0,4.7,0.7,5.8,2     c1.1,1.3,1.1,3.3,0.2,5.8l-4.9,13.2c-0.9,2.3-2.3,4.1-4.3,5.3c-2,1.3-4.4,1.9-7.3,1.9h-13.9l-0.9-5.4h14.5c1,0,1.7-0.5,2-1.5     l4.4-11.6c0.4-1,0-1.5-1.2-1.5h-5.3c-5.9,0-8-2.4-6.2-7.3l4.9-13.2c0.9-2.3,2.3-4.1,4.3-5.3c2-1.3,4.4-1.9,7.3-1.9H285.4      M287.9,25.4h-2.5h-13.9c-3.4,0-6.3,0.8-8.8,2.3c-2.6,1.6-4.4,3.9-5.5,6.8l-4.9,13.2c-1.2,3.2-1.1,5.9,0.3,7.9     c1.6,2.2,4.4,3.3,8.6,3.3h2.8l-3.3,8.7h-13.9h-3.5l0.6,3.4l0.9,5.4l0.4,2.5h2.5h13.9c3.4,0,6.3-0.8,8.8-2.3     c2.6-1.6,4.5-3.9,5.5-6.8l4.9-13.2c1.3-3.5,1.1-6.4-0.6-8.6c-1.6-2.1-4.4-3.1-8.1-3.1h-2.8l3.1-8.2h13.9h3.5l-0.6-3.4l-0.9-5.4     L287.9,25.4L287.9,25.4z"/>
		</g>
		<g>
			<polygon class="st3" points="291.2,77.6 299.2,56.2 295.7,56.2 287.7,77.6 274.8,77.6 293.7,26.9 306.7,26.9 298.9,47.6      302.4,47.6 310.2,26.9 323.1,26.9 304.1,77.6    "/>
			<path class="st0" d="M321,28.3l-17.9,47.8h-9.8l8-21.4h-6.7l-8,21.4h-9.8l17.9-47.8h9.8l-7.8,20.8h6.7l7.8-20.8H321 M325.2,25.4     H321h-9.8h-2l-0.7,1.9l-7.1,18.9H301l6.3-16.8l1.5-4h-4.3h-9.8h-2l-0.7,1.9l-17.9,47.8l-1.5,4h4.3h9.8h2l0.7-1.9l7.3-19.5h0.3     l-6.5,17.5l-1.5,4h4.3h9.8h2l0.7-1.9l17.9-47.8L325.2,25.4L325.2,25.4z"/>
		</g>
		<g>
			<path class="st3" d="M318.5,77.6c-3.3,0-5.6-0.8-7-2.4c-1.5-1.7-1.7-4-0.6-6.8L323.4,35c1-2.6,2.6-4.7,4.9-6.1     c2.3-1.4,5-2.1,8-2.1h8.3c3.3,0,5.6,0.8,7,2.4c1.5,1.7,1.7,4,0.6,6.8l-12.5,33.3c-1,2.6-2.6,4.7-4.9,6.1c-2.3,1.4-5,2.1-8,2.1     H318.5z M326.4,69.2c0.2,0,0.4,0,0.7-0.7l12.4-33.2h-2.8c-0.5,0-0.6,0.1-0.8,0.5l-12.5,33.4H326.4z"/>
			<path class="st0" d="M344.7,28.3c2.8,0,4.8,0.6,5.9,1.9c1.1,1.3,1.2,3,0.3,5.3l-12.5,33.3c-0.9,2.3-2.3,4.1-4.3,5.3     c-2,1.3-4.4,1.9-7.3,1.9h-8.3c-2.8,0-4.8-0.6-5.8-1.9c-1.1-1.3-1.2-3-0.3-5.3l12.5-33.3c0.9-2.3,2.3-4.1,4.3-5.3     c2-1.3,4.4-1.9,7.3-1.9H344.7 M322.8,70.7h3.6c1,0,1.7-0.6,2.1-1.7l12.7-33.9c0.3-0.9,0-1.4-1-1.4h-3.5c-1.1,0-1.8,0.5-2.2,1.5     l-12.7,33.9C321.6,70.2,321.9,70.7,322.8,70.7 M344.7,25.4h-8.3c-3.4,0-6.3,0.8-8.8,2.3c-2.6,1.6-4.5,3.9-5.5,6.8l-12.5,33.3     c-1.6,4.2-0.4,6.9,0.9,8.3c1.7,1.9,4.4,2.9,8.1,2.9h8.3c3.4,0,6.3-0.8,8.8-2.3c2.6-1.6,4.5-3.9,5.5-6.8l12.5-33.3     c1.6-4.2,0.4-6.9-0.9-8.3C351.1,26.4,348.3,25.4,344.7,25.4L344.7,25.4z M337.2,36.7l0.2,0l-11.6,31h-0.2L337.2,36.7L337.2,36.7z     "/>
		</g>
		<g>
			<polygon class="st3" points="347.8,77.6 363.7,35.2 356.8,35.2 355.5,26.9 385.6,26.9 387,35.2 376.6,35.2 360.7,77.6    "/>
			<path class="st0" d="M384.4,28.3l0.9,5.4h-9.7l-15.9,42.3h-9.8l15.9-42.3h-7.7l-0.8-5.4H384.4 M386.9,25.4h-2.5h-27.1h-3.4     l0.5,3.4l0.8,5.4l0.4,2.5h2.5h3.4l-14.4,38.4l-1.5,4h4.3h9.8h2l0.7-1.9l15.1-40.4h7.7h3.5l-0.6-3.4l-0.9-5.4L386.9,25.4     L386.9,25.4z"/>
		</g>
	</g>
	<g>
		<path class="st4" d="M84,27.3L66.1,75.1h-9.8l8-21.4h-6.7l-8,21.4h-9.8l17.9-47.8h9.8l-7.8,20.8h6.6l7.8-20.8H84z"/>
		<path class="st4" d="M130.5,69.7h13.3l-4.7,5.4h-13.4c-5.9,0-8-2.4-6.2-7.2l12.5-33.3c0.9-2.3,2.3-4.1,4.3-5.3    c2-1.3,4.4-1.9,7.3-1.9h13.1l0.9,5.4H144c-1,0-1.7,0.5-2,1.5l-12.7,33.9C128.9,69.2,129.3,69.7,130.5,69.7z"/>
		<path class="st4" d="M181.8,45.9c-1.3,2.3-2.9,4-4.8,5.2c1,1.2,1.4,2.8,1,5l-3.3,19.1h-9.8l3.2-18.8c0.2-1.2-0.1-1.8-0.8-1.8h-1.5    L158,75.1h-9.8l17.9-47.8h9.8L168.2,48h1.5c0.7,0,1.4-0.6,2.1-1.8l10.8-18.9h9.9L181.8,45.9z"/>
		<path class="st4" d="M194.7,69.7h13.1l-4.5,5.4H190c-5.9,0-8-2.4-6.2-7.2l12.5-33.3c0.9-2.3,2.3-4.1,4.3-5.3    c2-1.3,4.4-1.9,7.3-1.9h12.8l1,5.4h-13.5c-1,0-1.7,0.5-2,1.5l-5.2,14h11.6l-2,5.4h-11.6l-5.4,14.5    C193.1,69.2,193.5,69.7,194.7,69.7z"/>
		<path class="st4" d="M246.4,27.3h9.8l-9,24c-1.7,4.5-5.2,6.9-10.6,7.2l-6.2,16.6h-9.7l6.1-16.5c-5.5-0.2-7.4-2.6-5.7-7.2l9-24h9.8    l-9.1,24.3c-0.4,1,0,1.5,1.1,1.5h3.3c1.1,0,1.8-0.5,2.2-1.5L246.4,27.3z"/>
		<path class="st5" d="M263.3,68.2l4.4-11.6c0.4-1,0-1.5-1.2-1.5h-5.3c-5.9,0-8-2.4-6.2-7.3l4.9-13.2c0.9-2.3,2.3-4.1,4.3-5.3    c2-1.3,4.4-1.9,7.3-1.9h13.9l0.9,5.4h-14.5c-1,0-1.7,0.5-2,1.5l-4.2,11.2c-0.4,1,0,1.5,1.2,1.5h5.3c2.8,0,4.7,0.7,5.8,2    c1.1,1.3,1.1,3.3,0.2,5.8l-4.9,13.2c-0.9,2.3-2.3,4.1-4.3,5.3c-2,1.3-4.4,1.9-7.3,1.9h-13.9l-0.9-5.4h14.5    C262.3,69.7,262.9,69.2,263.3,68.2z"/>
		<path class="st5" d="M321,27.3l-17.9,47.8h-9.8l8-21.4h-6.7l-8,21.4h-9.8l17.9-47.8h9.8l-7.8,20.8h6.7l7.8-20.8H321z"/>
		<path class="st5" d="M318.5,75.1c-2.8,0-4.8-0.6-5.8-1.9c-1.1-1.3-1.2-3-0.3-5.3l12.5-33.3c0.9-2.3,2.3-4.1,4.3-5.3    c2-1.3,4.4-1.9,7.3-1.9h8.3c2.8,0,4.8,0.6,5.9,1.9c1.1,1.3,1.2,3,0.3,5.3l-12.5,33.3c-0.9,2.3-2.3,4.1-4.3,5.3    c-2,1.3-4.4,1.9-7.3,1.9H318.5z M322.8,69.7h3.6c1,0,1.7-0.6,2.1-1.7l12.7-33.9c0.3-0.9,0-1.4-1-1.4h-3.5c-1.1,0-1.8,0.5-2.2,1.5    l-12.7,33.9C321.6,69.2,321.9,69.7,322.8,69.7z"/>
		<path class="st5" d="M365.8,32.8h-7.7l-0.8-5.4h27.1l0.9,5.4h-9.7l-15.9,42.3h-9.8L365.8,32.8z"/>
	</g>
	<g>
		<polygon class="st6" points="376.9,83 357.1,83.1 370.3,81.5 354.8,75.3 372,79.3 358.7,68.4 372.4,77.5 364.3,65.4 375.3,76.5     377.6,63.2 377.1,77.9 387.6,72.8 378.4,82.5   "/>
	</g>
	<g>
		<g>
			<g>
				<path class="st7" d="M399.9,20.1c0,0-0.9,0-1.2,0.3c-0.3,0.3-0.2,1.5-0.2,1.5l-1.7,1.8v4.9l1.7,1.5c0,0,0.2,1.1,0.4,1.8      c0,0-2.9,1.4-3.5,3.7c0,0-2.2,0.4-4.5,2.1c-2.2,1.7-4.2,3-6.1,3c-1.9,0-8.4-0.5-8.4-0.5s-0.8,0-1,0.7c0,0-0.8-0.3-2.5,0.4      c-1.7,0.6-7.2,4.8-7.2,4.8s-0.4,0.8,0.1,1.3l-25.4,7.8c0,0-2.1,1-4.6-0.4c-2.4-1.5-10.8-7.1-10.8-7.1s-5.3-1.3-5.1,4.3      c0,0,0.1,1,1.2,1.5c1.2,0.5,14.2,5.4,14.2,5.4s3.5,1.8,6.4-0.6l2-1.8l23.2-6.7c0,0,0.8,1.9,1.3,1.9c0.5,0,3.2-0.1,3.2-0.1      s0.4,0.7,0.9,0.7c0.5,0,5.3-2.8,5.3-2.8s2.6,0,3.3-0.8c0,0,0.3,1.1,1.7,1.3c1.4,0.3,9.1,1.2,10.5,1.2c1.5-0.1,3.6-1.3,5.3-1      c0,0-1.6,2.5-1.9,3c-0.3,0.4-0.1,1.1-0.1,1.1s-1.4,0.5-2.4,2.1c-1,1.6-1.2,3.1-1.2,3.1s-3.1,3-4.4,5.3c-1.3,2.3-2.3,6.5-2.3,6.5      s-2.6,0.8-2.8,1.7c-0.1,0.9-0.5,2.2-0.5,2.2s-2.4,2.1-4.1,2.6c-1.7,0.5-1.8,2.4-1.6,3.2c0,0-1.2,1.1-1.7,1.3      c-0.4,0.3,0.1,0.9,0.1,0.9s4.9-0.3,7.6-1.5c0,0,2.2,0.1,4.7-1.9c2.4-2.1,2.4-3.9,3.7-4c1.3-0.2,3-1.4,2.8-3.3      c0,0,4.6-4.8,4.9-5.8c0.3-1,1.4-1.7,2.1-1.7c0.6,0,4.4-2.8,5.6-5.6c1.2-2.8,6.6-4.6,8.7-3.9c0,0,0.8,0.8,2.1,3.9      c1.3,3.1,4,4.7,6.9,4.6c2.9-0.1,4.9-2.4,5.4-3c0,0,1.4-0.1,1.7-1.5c0.3-1.5,0.1-2.9,0.6-4.2c0.4-1.3,3-6.4,2.8-11.3      c0,0,1.3,0.7,1.4,0.2c0.1-0.5-1.2-5.8,0-6.2c1.2-0.4,2.7-0.4,3-1.3c0.3-0.9,0.3-2.7-0.5-3.1l-0.2-1.4l-4.5-4l-0.6,0.1l-0.1,3      c0,0-1.4,0.1-1.7,1c-0.3,1-0.3,2.7-1,3.7c-0.7,1-1,1.8-0.9,2.2c0.1,0.4-0.1,1.7-0.3,2C430,40,430,40,429,38.3      c-1-1.7-2.2-3.9-4.2-5.2c-2-1.3-3.2-2.2-3.2-3.8c0-1.5,1.6-4.4,0.6-7c-1-2.6-2.1-3.7-3-4c0,0-1-2.1-3.3-2.3      c-2.3-0.2-5.5,0.6-6.6,0.9c0,0-2.1-1.5-5.7-0.3C399.9,17.7,399.9,20.1,399.9,20.1z"/>
			</g>
		</g>
	</g>
	<g>
		<g>
			<g>
				<path d="M79.6,60.3c-3.7-7.3,1.1-19.8,10.8-27.9c9.7-8.2,20.6-8.9,24.3-1.6c3.7,7.3-1.1,19.8-10.8,27.9      C94.2,66.8,83.3,67.5,79.6,60.3z"/>
				<path d="M97.1,45.5"/>
			</g>
		</g>
		<g>
			<path class="st7" d="M82,64.6l4.9,7.7c0,0,12.3,10.9,24.3-0.5c14-13.3,11-28.7,11-28.7l-5-10.3c0,0,0.2,16.9-11.1,26.2     C92.1,70.6,82,64.6,82,64.6z"/>
		</g>
		<g>
			<path class="st7" d="M84.4,66.5l3.3,5.5c0,0,6.2,5,14.3,4c1-0.1,5.4-1.4,7.2-3.7L104,61.5C99,66.1,92.2,67.8,84.4,66.5z"/>
		</g>
	</g>
</g>
<g class="st8">
	<path class="st9" d="M398.5,76.2h2.8l-0.9,3.4h-2.8L398.5,76.2z"/>
	<path class="st9" d="M402.3,77.7l2.3-8.5l2.4-1.9h4.1l1.3,1.9l-0.6,2.4h-2.9l0.5-1.7l-0.3-0.5h-0.9l-0.6,0.5l-1.9,7.1l0.3,0.5h0.9   l0.6-0.5l0.5-1.7h2.9l-0.6,2.4l-2.4,1.9h-4L402.3,77.7z"/>
	<path class="st9" d="M411.3,77.7l2.3-8.5l2.4-1.9h4.4l1.3,1.9l-2.3,8.5l-2.3,1.9h-4.4L411.3,77.7z M416,77.5l0.6-0.5l1.9-7.1   l-0.3-0.5H417l-0.6,0.5l-1.9,7.1l0.4,0.5H416z"/>
	<path class="st9" d="M423.8,67.4h2.1l-0.3,1.7l2.1-1.7h2l1.1,1.4l1.8-1.4h2l1.3,1.9l-2.8,10.3h-2.9l2.5-9.2l-0.3-0.5h-0.4l-1.4,1.1   l-2.3,8.6h-2.9l2.5-9.2l-0.4-0.5h-0.3l-1.5,1.2l-2.3,8.5h-2.9L423.8,67.4z"/>
</g>
</svg>