<svg xmlns="http://www.w3.org/2000/svg" viewBox="0.0 0.0 870.25242 639.10985" width="369.012483211554" height="270.993542358485"><defs><style>.cls-1{fill:#6cace4;}.cls-2{fill:#010101;}.cls-3{fill:#fff;}</style></defs><title>UtahMammoth</title><path class="cls-1" d="M870.25,395.465c.643-123.513-128.417-200.406-169.59-213.75,0,0,78.078,113.28,72.315,191.358-2.544,34.427-19.624,45.652-36.83,47.962-.34-67.744-28.538-124.221-48.378-155.613l15.003-16.32S671.562,166.071,544.996,65.417l-20.157,13.06L403.696,0,282.719,78.369,263.896,66.176,0,237.116l152.835,82.34-31.25,20.241,167.99,90.52-30.474,19.74s117.258,65,233.43,55.594c10.951,6.821,22.343,13.301,34.044,19.198-58.179,30.465-126.348,13.852-126.348,13.852l-82.773,52.133c212.098,102.637,330.749,17.847,373.115-33.468,96.016-5.112,179.106-50.398,179.681-161.8Z"/><path class="cls-2" d="M853.354,399.981c0-69.912-48.304-144.52-114.523-182.875,58.737,107.1,66.686,178.23,28.222,208.52-12.052,9.49-29.973,14.128-50.04,13.944.46-5.88.727-11.808.727-17.78,0-59.922-22.31-114.53-53.634-158.015l16.355-18.013S646.334,173.397,543.663,88.64L524.84,100.832,403.696,22.355,282.71,100.724,263.887,88.531,36.811,235.637l152.836,82.339-31.25,20.249,167.997,90.52-29.231,18.94,4.753,2.327c34.336,15.545,110.778,44.284,192.608,36.445a315.97975,315.97975,0,0,0,65.168,33.95c-37.48,38.798-106.332,44.678-155.996,35.971l-49.272,31.917c46.32,21.474,99.96,31.733,146.597,31.733,63.5,0,121.336-19.024,161.618-58.863a177.52131,177.52131,0,0,0,17.396-20.058c100.17-1.325,173.319-52.04,173.319-141.125Z"/><path class="cls-3" d="M653.181,390.792s17.146-5.213,33.985-1.284q-.83991-5.66592-1.96-11.285c-2.119-8.706-10.867-27.195-49.239-38.379,0,0,13.161-7.531,37.12-2.92q-2.04209-5.24977-4.311-10.407c-4.403-8.6-18.13-28.056-52.866-30.15,0,0,14.47-8.456,31.759-8.83a273.44114,273.44114,0,0,0-20.558-27.664l16.037-18.138c-14.452-22.819-45.885-66.093-101.945-115.332l-16.355,10.591-121.144-78.477-107.593,69.695,152.77,21.842,79.861,51.732-68.386-17.288L320.889,237.255l82.806,30.148-101.529,31.65L437.43,371.585s14.71-14.195,39.456-26.02h-.01a156.79527,156.79527,0,0,1,58.721-15.479s-23.843-43.76-78.426-67.628l10.808-12.668s-19.09-7.03-64.284-10.466c0,0,52.775-25.887,107.017-22.21l65.993,42.751h28.263l-30.248,35.436a243.57267,243.57267,0,0,1,50.447,111.295,166.02407,166.02407,0,0,0,19.673,13.143,157.4147,157.4147,0,0,0,44.194,16.663c.091-1.318.15-2.644.225-3.962-.134-8.706-3.679-31.391-36.079-41.648ZM598.96,532.275q-1.79754,2.1861-3.695,4.287c-26.262,29.231-64.925,44.551-104.715,49.889a256.67188,256.67188,0,0,1-34.093,2.284,326.818,326.818,0,0,0,44.551,3.128c57.487,0,107.317-16.605,141.827-50.723.518-.508.993-1.05,1.5-1.568-12.183-1.176-42.724-6.689-45.375-7.297"/><path class="cls-1" d="M528.732,201.787,448.137,125.31l-95.208-14.786,50.757-52.007L296.102,128.212l152.769,21.843Zm-68.379-17.288L320.886,237.265l82.806,30.14-47.478-30.757Zm64.482-47.513,31.624,20.482-15.261-31.074ZM437.426,371.595s14.711-14.195,39.455-26.02L302.162,299.063Zm187.735,34.99a165.75371,165.75371,0,0,0,19.674,13.144c1.667.943,3.36,1.835,5.054,2.711a236.02123,236.02123,0,0,0-8.85-50.398,255.60453,255.60453,0,0,0-40.755-81.905l4.678-30.282-30.249,35.452a243.55969,243.55969,0,0,1,50.448,111.279Zm19.231,132.991s-19.733-2.677-45.435-7.305q-1.79754,2.1861-3.695,4.287c-26.262,29.231-64.926,44.55-104.715,49.889a256.4075,256.4075,0,0,1-34.093,2.284s20.491,1.493,36.354.459q3.087-.227,6.113-.517,2.589-.237,5.162-.55c.1-.009.2-.025.3-.033,2.543-.301,5.088-.643,7.606-1.043,38.43-5.813,69.612-20.383,92.589-41.591Z"/><path class="cls-3" d="M462.712,395.092c41.048-33.317,80.921-37.037,80.921-37.037s9.59,14.92,26.996,33.418c38.296,40.698,88.21,70.696,144.094,70.696,35.795,0,68.279-13.193,84.241-42.6,22.81-42.016,5.255-102.37-17.08-147.406,19.65,22.592,39.915,56.194,47.128,92.706,5.514,27.921,5.038,60.956-12.642,90.002-24.57,40.333-76.076,58.922-132.386,58.922-76.226-.01-158.265-40.506-221.272-118.7Z"/><path class="cls-1" d="M495.453,373.814a184.00051,184.00051,0,0,0-32.741,21.274c45.784,56.82,104.414,97.868,172.241,113.339a223.973,223.973,0,0,0,53.042,5.32c31.6-5.562,45.785-18.964,45.785-18.964-135.856,17.38-213.665-82.415-238.327-120.97Zm11.493-127.832-.042-.016s10.992,26.838,30.982,38.872l13.644-9.966,11.885-1.277Z"/><path class="cls-3" d="M277.706,189.456l-55.985,71.83,100.92-62.223-30.19-19.556,27.438-18.54-55.426-35.903-32.066,71.707Z"/><path class="cls-1" d="M190.678,218.754l51.957-8.866-20.908,51.399,55.985-71.83-45.31,7.313,32.066-71.706L95.029,232.456l109.96-44.635Z"/></svg>